<svg width="30" height="30" viewBox="0 0 30 30" fill="none" xmlns="http://www.w3.org/2000/svg">
<path d="M27.2123 12.0801C27.8823 10.0701 27.6523 7.87008 26.5823 6.04008C24.9723 3.24008 21.7323 1.80008 18.5723 2.47008C17.1623 0.890082 15.1423 -0.00991754 13.0223 8.24558e-05C9.7923 8.24558e-05 6.9223 2.08008 5.9223 5.15008C3.8423 5.58008 2.0523 6.88008 1.0023 8.72008C-0.617703 11.5201 -0.247703 15.0401 1.9223 17.4401C1.2523 19.4501 1.4823 21.6501 2.5523 23.4701C4.1623 26.2801 7.4023 27.7201 10.5723 27.0501C11.9723 28.6301 13.9923 29.5401 16.1123 29.5301C19.3423 29.5301 22.2123 27.4501 23.2123 24.3801C25.2923 23.9501 27.0823 22.6501 28.1223 20.8101C29.7523 18.0101 29.3823 14.4901 27.2123 12.0901V12.0801ZM24.9123 7.01008C25.5523 8.13008 25.7923 9.44008 25.5723 10.7101C25.5323 10.6801 25.4523 10.6401 25.4023 10.6101L19.5223 7.21008C19.2223 7.04008 18.8523 7.04008 18.5523 7.21008L11.6623 11.1901V8.27008L17.3523 4.98008C20.0023 3.45008 23.3823 4.36008 24.9123 7.01008ZM11.6623 13.0801L14.5623 11.4001L17.4623 13.0801V16.4301L14.5623 18.1101L11.6623 16.4301V13.0801ZM13.0123 1.93008C14.3123 1.93008 15.5623 2.38008 16.5623 3.21008C16.5223 3.23008 16.4423 3.28008 16.3823 3.31008L10.5023 6.70008C10.2023 6.87008 10.0223 7.19008 10.0223 7.54008V15.5001L7.4923 14.0401V7.46008C7.4923 4.40008 9.9623 1.93008 13.0223 1.92008L13.0123 1.93008ZM2.6823 9.69008C3.3323 8.57008 4.3423 7.71008 5.5623 7.26008V14.2501C5.5623 14.6001 5.7423 14.9101 6.0423 15.0901L12.9223 19.0601L10.3823 20.5301L4.7023 17.2501C2.0623 15.7201 1.1523 12.3401 2.6823 9.69008ZM4.2323 22.5201C3.5823 21.4101 3.3523 20.0901 3.5723 18.8201C3.6123 18.8501 3.6923 18.8901 3.7423 18.9201L9.6223 22.3201C9.9223 22.4901 10.2923 22.4901 10.5923 22.3201L17.4723 18.3401V21.2601L11.7823 24.5401C9.1323 26.0601 5.7523 25.1601 4.2223 22.5201H4.2323ZM16.1223 27.6001C14.8323 27.6001 13.5723 27.1501 12.5823 26.3201C12.6223 26.3001 12.7123 26.2501 12.7623 26.2201L18.6423 22.8301C18.9423 22.6601 19.1323 22.3401 19.1223 21.9901V14.0401L21.6523 15.5001V22.0701C21.6523 25.1301 19.1723 27.6101 16.1223 27.6101V27.6001ZM26.4623 19.8401C25.8123 20.9601 24.7923 21.8201 23.5823 22.2601V15.2701C23.5823 14.9201 23.4023 14.6001 23.1023 14.4301L16.2123 10.4501L18.7423 8.99008L24.4323 12.2701C27.0823 13.8001 27.9823 17.1801 26.4523 19.8301L26.4623 19.8401Z" fill="#7127BA"/>
</svg>
